<svg xmlns="http://www.w3.org/2000/svg" width="256" height="256"><path d="M128 25.265v4.917l1.6.264c.88.146 2.793.267 4.252.269 3.687.007 11.436 1.125 16.727 2.414 16.89 4.115 31.643 12.476 44.236 25.069 14.176 14.176 22.657 30.48 26.432 50.815 1.112 5.994 1.338 21.289.415 28.217-4.482 33.673-26.78 62.4-58.249 75.043-48.211 19.369-102.956-3.889-122.62-52.094-3.524-8.64-5.984-19.131-6.519-27.806l-.27-4.373h11.833c8.672 0 11.791-.13 11.672-.487-.222-.667-26.509-33.594-26.843-33.623-.31-.027-27.253 33.422-27.253 33.834 0 .152 4.584.276 10.185.276h10.185l.293 3.947c1.359 18.32 7.272 35.57 17.402 50.769 10.073 15.113 24.297 27.55 40.655 35.546 10.577 5.17 19.814 8.087 31.147 9.834 7.197 1.109 22.67 1.109 29.867 0 22.055-3.401 41.748-13.118 57.546-28.395 35.063-33.909 42.005-87.45 16.729-129.026-4.516-7.428-8.505-12.414-15.588-19.486-9.552-9.538-16.438-14.475-28.274-20.273-12.594-6.169-25.885-9.571-40.239-10.298l-5.321-.27v4.917m34.1 56.153c-6.707 4.383-13.811 9.103-15.787 10.49-4.7 3.299-10.84 9.455-13.49 13.526l-2.114 3.247-.896-3.947c-2.779-12.241-9.642-19.871-20.16-22.414-3.38-.817-11.112-.707-14.506.207-6.321 1.702-12.77 6.305-15.6 11.134-1.704 2.907-3.072 6.927-3.891 11.432-.606 3.338-.737 8.18-.88 32.614l-.168 28.693H174.933v-20.907H133.12l.003-4.586c.006-8.758 1.259-12.603 5.401-16.583 2.33-2.239 9.479-7.432 26.809-19.472l9.387-6.522.113-12.472c.062-6.859-.034-12.457-.213-12.44-.18.018-5.814 3.618-12.52 8m-52.176 23.025c2.304 1.189 4.123 3.042 5.227 5.323 1.316 2.718 1.74 8.25 1.748 22.821l.008 12.906H91.679l.134-16.533c.127-15.758.176-16.624 1.032-18.475 1.595-3.448 4.114-5.776 7.419-6.858 2.006-.656 7.746-.172 9.66.816" fill-rule="evenodd"/></svg>